<svg xmlns="http://www.w3.org/2000/svg" xmlns:xlink="http://www.w3.org/1999/xlink" version="1.0" x="0" y="0" width="2400" height="1058.0622646022123" viewBox="80.66839813232421 85.61733459472656 178.66320373535157 78.76533081054687" preserveAspectRatio="xMidYMid meet" color-interpolation-filters="sRGB"><g><defs><linearGradient id="92" x1="0%" y1="0%" x2="100%" y2="0%"><stop offset="0%" stop-color="#fa71cd"></stop> <stop offset="100%" stop-color="#9b59b6"></stop></linearGradient><linearGradient id="93" x1="0%" y1="0%" x2="100%" y2="0%"><stop offset="0%" stop-color="#f9d423"></stop> <stop offset="100%" stop-color="#f83600"></stop></linearGradient><linearGradient id="94" x1="0%" y1="0%" x2="100%" y2="0%"><stop offset="0%" stop-color="#0064d2"></stop> <stop offset="100%" stop-color="#1cb0f6"></stop></linearGradient><linearGradient id="95" x1="0%" y1="0%" x2="100%" y2="0%"><stop offset="0%" stop-color="#f00978"></stop> <stop offset="100%" stop-color="#3f51b1"></stop></linearGradient><linearGradient id="96" x1="0%" y1="0%" x2="100%" y2="0%"><stop offset="0%" stop-color="#7873f5"></stop> <stop offset="100%" stop-color="#ec77ab"></stop></linearGradient><linearGradient id="97" x1="0%" y1="0%" x2="100%" y2="0%"><stop offset="0%" stop-color="#f9d423"></stop> <stop offset="100%" stop-color="#e14fad"></stop></linearGradient><linearGradient id="98" x1="0%" y1="0%" x2="100%" y2="0%"><stop offset="0%" stop-color="#009efd"></stop> <stop offset="100%" stop-color="#2af598"></stop></linearGradient><linearGradient id="99" x1="0%" y1="0%" x2="100%" y2="0%"><stop offset="0%" stop-color="#ffcc00"></stop> <stop offset="100%" stop-color="#00b140"></stop></linearGradient><linearGradient id="100" x1="0%" y1="0%" x2="100%" y2="0%"><stop offset="0%" stop-color="#d51007"></stop> <stop offset="100%" stop-color="#ff8177"></stop></linearGradient><linearGradient id="102" x1="0%" y1="0%" x2="100%" y2="0%"><stop offset="0%" stop-color="#a2b6df"></stop> <stop offset="100%" stop-color="#0c3483"></stop></linearGradient><linearGradient id="103" x1="0%" y1="0%" x2="100%" y2="0%"><stop offset="0%" stop-color="#7ac5d8"></stop> <stop offset="100%" stop-color="#eea2a2"></stop></linearGradient><linearGradient id="104" x1="0%" y1="0%" x2="100%" y2="0%"><stop offset="0%" stop-color="#00ecbc"></stop> <stop offset="100%" stop-color="#007adf"></stop></linearGradient><linearGradient id="105" x1="0%" y1="0%" x2="100%" y2="0%"><stop offset="0%" stop-color="#b88746"></stop> <stop offset="100%" stop-color="#fdf5a6"></stop></linearGradient></defs><g fill="#444" class="icon-text-wrapper icon-svg-group iconsvg" transform="translate(82.41999816894531,87.36893463134766)"><g class="iconsvg-imagesvg" transform="translate(57.58000183105469,0)"><g><rect fill="#444" fill-opacity="0" stroke-width="2" x="0" y="0" width="60" height="36.53212696131857" class="image-rect"></rect> <svg filter="url(#colors7096208985)" x="0" y="0" width="60" height="36.53212696131857" filtersec="colorsf7161368710" class="image-svg-svg primary" style="overflow: visible;"><svg xmlns="http://www.w3.org/2000/svg" viewBox="0.0009911060333251953 -0.0010924339294433594 316.7093505859375 192.8344268798828"><path d="M62.71 192.78c-12.05 0-24.09.12-36.13 0-21.94-.27-33.21-19.52-22.46-38.53q39.74-70.3 79.7-140.46c10.46-18.32 34.41-18.26 44.89.35 14.6 25.91 28.55 52.19 42.8 78.3q17.3 31.71 34.68 63.37c1 1.8 1.77 4.36 4.11 4.49 3 .16 3.36-2.93 4.46-4.86q33.59-58.71 67-117.5c1.66-2.93 5.37-6.06 3.26-9.41-1.82-2.88-6.15-1.28-9.36-1.3-17-.12-34 .18-51-.18-6.2-.13-10 1.94-13.1 7.33-8.88 15.32-18.23 30.37-27.49 45.46-3.57 5.82-3.67 5.15-7.86-.18-11-14-11.07-26.92.71-40.75 5.88-6.92 9.82-15.54 14.37-23.54C197 5.4 205.63.38 216.84.28 241.4.06 266-.26 290.52.36c22.43.57 32.81 20 21.71 39.47q-39.35 68.88-78.63 137.79c-5.39 9.5-13 15.14-23.89 14.86s-18-6-23.26-15.79c-25.14-46.78-50.75-93.32-76.2-139.93-3.15-5.78-4.77-5.92-7.9-.4q-35.13 61.9-70.22 123.83c-2.63 4.63-1.3 5.72 3.38 5.71 19.6-.08 39.2-.12 58.8 0 4.74 0 7.17-2.52 9.38-6.21q13.68-22.78 27.66-45.36c1.2-2 2-5 4.52-5.06 3.11-.11 3.36 3.46 4.94 5.38 10.64 13 10.08 25.17-.74 38.22-6.56 7.91-11.12 17.51-16.42 26.44s-13.19 13.29-23.39 13.42c-12.51.16-25.03.04-37.55.05z" fill="#000000"></path></svg></svg> <defs><filter id="colors7096208985"><feColorMatrix type="matrix" values="0 0 0 0 0.265625  0 0 0 0 0.265625  0 0 0 0 0.265625  0 0 0 1 0" class="icon-feColorMatrix "></feColorMatrix></filter> <filter id="colorsf7161368710"><feColorMatrix type="matrix" values="0 0 0 0 0.99609375  0 0 0 0 0.99609375  0 0 0 0 0.99609375  0 0 0 1 0" class="icon-fecolormatrix"></feColorMatrix></filter> <filter id="colorsb4059765748"><feColorMatrix type="matrix" values="0 0 0 0 0  0 0 0 0 0  0 0 0 0 0  0 0 0 1 0" class="icon-fecolormatrix"></feColorMatrix></filter></defs></g></g> <g transform="translate(0,43.532127380371094)"><g fill-rule="" class="tp-name iconsvg-namesvg"><g transform="scale(1)"><g><path d="M29.52-30.84L29.52 0 21.15 0 10.58-18.51 10.58 0 2.64 0 2.64-30.84 11.02-30.84 21.59-12.34 21.59-30.84 29.52-30.84ZM58.16-16.74L58.16-6.61Q58.16-3.3 56.29-1.43 54.42 0.44 51.11 0.44L51.11 0.44 40.98 0.44Q37.67 0.44 35.8-1.43 33.93-3.3 33.93-6.61L33.93-6.61 33.93-16.74Q33.93-20.05 35.8-21.92 37.67-23.79 40.98-23.79L40.98-23.79 51.11-23.79Q54.42-23.79 56.29-21.92 58.16-20.05 58.16-16.74L58.16-16.74ZM50.45-7.27L50.45-16.08Q50.45-17.85 48.69-17.85L48.69-17.85 43.4-17.85Q41.64-17.85 41.64-16.08L41.64-16.08 41.64-7.27Q41.64-5.51 43.4-5.51L43.4-5.51 48.69-5.51Q50.45-5.51 50.45-7.27L50.45-7.27ZM72.26-7.49L77.33-23.35 85.48-23.35 76.67 0 67.86 0 59.05-23.35 67.2-23.35 72.26-7.49ZM94.52-5.73L95.62-5.73Q97.95-5.73 100.91-6.61L100.91-6.61 100.91-9.25 94.52-9.25Q93.86-9.25 93.41-8.81 92.97-8.37 92.97-7.71L92.97-7.71 92.97-7.27Q92.97-6.61 93.41-6.17 93.86-5.73 94.52-5.73L94.52-5.73ZM87.47-17.41L87.47-22.91Q95.53-23.79 102.01-23.79L102.01-23.79Q105-23.79 106.81-21.99 108.62-20.18 108.62-17.18L108.62-17.18 108.62 0 101.79 0 101.35-2.2Q99.28-0.84 97.09-0.2 94.91 0.44 93.41 0.44L93.41 0.44 91.87 0.44Q88.88 0.44 87.07-1.37 85.26-3.17 85.26-6.17L85.26-6.17 85.26-8.15Q85.26-11.15 87.07-12.95 88.88-14.76 91.87-14.76L91.87-14.76 100.91-14.76 100.91-16.52Q100.91-17.18 100.47-17.63 100.02-18.07 99.36-18.07L99.36-18.07Q96.5-18.07 93.04-17.8 89.58-17.54 87.47-17.41L87.47-17.41ZM135.94 0L129.11 0 128.67-2.2Q126.59-0.84 124.41-0.2 122.23 0.44 120.73 0.44L120.73 0.44 118.75 0.44Q115.76 0.44 113.95-1.37 112.14-3.17 112.14-6.17L112.14-6.17 112.14-16.3Q112.14-19.61 114.01-21.48 115.89-23.35 119.19-23.35L119.19-23.35 128.23-23.35 128.23-30.84 135.94-30.84 135.94 0ZM121.4-5.95L122.94-5.95Q125.27-5.95 128.23-6.83L128.23-6.83 128.23-17.41 121.62-17.41Q119.85-17.41 119.85-15.64L119.85-15.64 119.85-7.49Q119.85-6.83 120.29-6.39 120.73-5.95 121.4-5.95L121.4-5.95ZM163.7 0L156.87 0 156.43-2.2Q154.35-0.84 152.17-0.2 149.99 0.44 148.49 0.44L148.49 0.44 146.51 0.44Q143.52 0.44 141.71-1.37 139.9-3.17 139.9-6.17L139.9-6.17 139.9-16.3Q139.9-19.61 141.77-21.48 143.65-23.35 146.95-23.35L146.95-23.35 155.99-23.35 155.99-30.84 163.7-30.84 163.7 0ZM149.16-5.95L150.7-5.95Q153.03-5.95 155.99-6.83L155.99-6.83 155.99-17.41 149.38-17.41Q147.61-17.41 147.61-15.64L147.61-15.64 147.61-7.49Q147.61-6.83 148.05-6.39 148.49-5.95 149.16-5.95L149.16-5.95ZM166.78-22.47L177.8-22.47 177.8 0 170.09 0 170.09-16.52 166.78-16.52 166.78-22.47ZM170.09-25.12L170.09-31.29 177.8-31.29 177.8-25.12 170.09-25.12Z" transform="translate(-2.640000104904175, 31.290000915527344)"></path></g> </g></g> </g></g><defs v-gra="od"></defs></g></svg>